<svg xmlns="http://www.w3.org/2000/svg" xmlns:xlink="http://www.w3.org/1999/xlink" width="25" height="24" viewBox="0 0 25 24">
    <defs>
        <circle id="a" cx="12.6" cy="12" r="12"/>
    </defs>
    <g fill="none" fill-rule="evenodd">
        <mask id="b" fill="#fff">
            <use xlink:href="#a"/>
        </mask>
        <use fill="#D1A1FF" opacity=".24" xlink:href="#a"/>
        <g mask="url(#b)">
            <g transform="translate(4.418 2.716)">
                <rect width="15.6" height="26.4" x=".382" y=".884" fill="#454CFC" rx="2"/>
                <path fill="#2C32DE" d="M3.382.884h9.6v1.4a1 1 0 0 1-1 1h-7.6a1 1 0 0 1-1-1v-1.4z"/>
                <g transform="translate(.382 5.684)">
                    <path fill="#454CFC" d="M2.376 1.353h10.985a2 2 0 0 1 2 2v12.241a2 2 0 0 1-2 2H2.376a2 2 0 0 1-2-2V3.354a2 2 0 0 1 2-2z"/>
                    <rect width="13.684" height="13.2" x="1.026" y=".068" fill="#BA71FF" rx="2"/>
                    <path fill="#FFF" d="M11.485 7.029l-5.528 3.317a.5.5 0 0 1-.757-.43V3.284a.5.5 0 0 1 .757-.429l5.528 3.317a.5.5 0 0 1 0 .858z"/>
                </g>
            </g>
        </g>
    </g>
</svg>
